<svg width="336" height="195" viewBox="0 0 336 195" fill="none" xmlns="http://www.w3.org/2000/svg">
<path d="M18.5371 31.4863L3.57227 8.33762H23.6812H67.6403L136.385 131.797L122.355 159.622L145.153 190.02H159.533C160.469 188.523 154.623 184.408 154.623 181.368H170.757L174.732 190.02H195.309C193.812 188.71 191.022 182.927 190.632 181.368H197.413L204.194 194.228H148.31H131.005H34.4372L45.4269 181.368H71.3815L98.2714 154.478L30.4621 31.4863H18.5371Z" fill="#8F9092"/>
<path d="M122.355 159.622L136.385 131.797L67.6403 8.33762H23.6812M122.355 159.622L148.31 194.228M122.355 159.622L133.579 174.821L144.803 190.02C148.778 190.02 156.166 190.02 159.533 190.02C160.469 188.523 154.623 184.408 154.623 181.368H170.757L174.732 190.02C176.135 190.02 187.265 190.02 195.309 190.02C193.812 188.71 191.022 182.927 190.632 181.368H197.413L204.194 194.228H148.31M23.6812 8.33762H3.57227L18.5371 31.4863H30.4621L98.2714 154.478L71.3815 181.368H45.4269L34.4372 194.228H131.005M23.6812 8.33762L77.3433 101.283L104.174 147.756L131.005 194.228M131.005 194.228H148.31" stroke="white" stroke-width="0.46765"/>
<path d="M136.619 131.942L122.589 159.767L148.544 194.373H131.239L104.408 147.9L77.5771 101.428L23.915 8.48227H67.8741L136.619 131.942Z" fill="#64E2D3"/>
<path d="M145.036 190.164L133.813 174.966L122.589 159.767M122.589 159.767L136.619 131.942L67.8741 8.48227H23.915L77.5771 101.428L104.408 147.9L131.239 194.373H148.544L122.589 159.767Z" stroke="white" stroke-width="0.46765"/>
<path d="M3.57207 9.03911L1 5.29791H71.8489L141.295 130.394L138.957 135.538L67.8739 9.03911H3.57207Z" fill="#8F9092" stroke="#FCFCFC" stroke-width="0.46765"/>
<path d="M186.298 181.013C187.285 182.155 189.425 184.765 190.577 185.581C191.579 186.291 192.457 187.001 192.235 188.355C192.202 188.557 192.144 188.774 192.058 189.007C189.754 189.986 183.006 190.313 177.246 188.355C174.119 186.56 168.524 179.218 168.03 176.934L168.03 176.934C167.757 175.673 167.485 174.412 166.713 173.15C166.088 172.127 165.134 171.104 163.586 170.082C160.13 167.797 154.864 163.229 155.358 159.966C155.851 156.703 157.003 152.787 163.586 150.503H164.409L239.035 113.325C232.02 112.624 192.276 99.2955 185.255 95.0867C178.234 90.8778 172.045 88.8605 173.797 74.2762C175.252 62.17 200.523 43.8011 213.314 36.1628L195.075 59.0776C194.53 60.3247 194 63.1462 196.245 64.4556C197.262 65.049 204.888 68.9622 214.252 73.8547C217.244 75.4179 220.414 77.081 223.602 78.7679C237.956 86.3626 252.688 94.4365 253.298 96.022C254.233 98.4537 261.014 118.079 264.288 127.588L192.235 150.503C188.007 151.387 179.089 153.935 177.246 157.05C175.403 160.166 177.137 164.099 178.234 165.676L180.373 163.229C180.373 162.315 182.348 161.326 183.336 160.945C183.357 162.051 183.403 163.395 183.477 164.861C183.52 165.698 183.573 166.576 183.636 167.471C183.711 168.546 183.802 169.646 183.91 170.734C184.032 171.964 184.176 173.179 184.344 174.324C184.527 175.572 184.739 176.738 184.984 177.75C185.347 179.256 185.782 180.421 186.298 181.013Z" fill="#E7E3E9"/>
<path d="M164.409 150.503C163.422 151.645 161.875 155.137 163.586 159.966C167.207 163.229 169.347 165.187 171.486 165.676C173.626 166.166 177.246 166.492 178.234 165.676M164.409 150.503H163.586C157.003 152.787 155.851 156.703 155.358 159.966M164.409 150.503L239.035 113.325C232.02 112.624 192.276 99.2955 185.255 95.0867C178.234 90.8778 172.045 88.8605 173.797 74.2762C175.252 62.17 200.523 43.8011 213.314 36.1628L195.075 59.0776C194.53 60.3247 194 63.1462 196.245 64.4556C197.262 65.049 204.888 68.9622 214.252 73.8547C217.244 75.4179 220.414 77.081 223.602 78.7679C237.956 86.3626 252.688 94.4365 253.298 96.022C254.233 98.4537 261.014 118.079 264.288 127.588L192.235 150.503C188.007 151.387 179.089 153.935 177.246 157.05C175.403 160.166 177.137 164.099 178.234 165.676M178.234 165.676C178.234 167.308 178.563 172.039 179.221 173.671C179.88 175.302 180.867 179.708 182.677 180.197M178.234 165.676L180.373 163.229M182.677 180.197C184.488 180.687 185.804 181.013 186.298 181.013M182.677 180.197C182.248 180.082 181.889 177.827 181.599 175.955M186.298 181.013C187.285 182.155 189.425 184.765 190.577 185.581C191.579 186.291 192.457 187.001 192.235 188.355M186.298 181.013C185.782 180.421 185.347 179.256 184.984 177.75M155.358 159.966C154.864 163.229 160.13 167.797 163.586 170.082C165.134 171.104 166.088 172.127 166.713 173.15M155.358 159.966C156.894 158.661 160.032 155.92 160.295 155.398C160.295 157.519 160.459 158.987 163.586 162.577C165.891 164.208 171.486 167.308 171.486 169.429C172.309 171.387 176.843 181.992 179.221 183.46C181.599 184.929 184.488 188.268 190.577 188.311M180.373 163.229C180.373 162.315 182.348 161.326 183.336 160.945C183.357 162.051 183.403 163.395 183.477 164.861M180.373 163.229C180.373 163.405 180.385 163.749 180.406 164.208M180.406 164.208C181.203 164.426 182.932 164.861 183.477 164.861M180.406 164.208C180.437 164.883 180.489 165.808 180.552 166.818M183.477 164.861C183.52 165.698 183.573 166.576 183.636 167.471M180.552 166.818C181.595 167.254 183.671 167.993 183.636 167.471M180.552 166.818C180.605 167.661 180.667 168.563 180.733 169.429M183.636 167.471C183.711 168.546 183.802 169.646 183.91 170.734M180.733 169.429C181.813 170.082 183.96 171.256 183.91 170.734M180.733 169.429C180.829 170.689 180.934 171.874 181.034 172.692M183.91 170.734C184.032 171.964 184.176 173.179 184.344 174.324M181.034 172.692C181.091 173.151 181.145 173.495 181.196 173.671C181.311 174.068 181.445 174.957 181.599 175.955M181.034 172.692C182.168 173.453 184.418 174.846 184.344 174.324M184.344 174.324C184.527 175.572 184.739 176.738 184.984 177.75M181.599 175.955C182.618 176.825 184.722 178.402 184.984 177.75M192.235 188.355C192.202 188.557 192.144 188.774 192.058 189.007C189.754 189.986 183.006 190.313 177.246 188.355C174.119 186.56 168.524 179.218 168.03 176.934C167.757 175.673 167.485 174.412 166.713 173.15M192.235 188.355C191.725 188.349 191.169 188.336 190.577 188.311M166.713 173.15C167.536 174.263 168.03 173.671 169.018 175.955C170.005 178.239 173.297 181.992 174.942 183.46C176.841 186.989 185.172 188.089 190.577 188.311M258.91 42.0084C256.571 40.6834 249.837 39.4363 241.607 45.0481" stroke="white" stroke-width="0.46765"/>
<path d="M228.045 73.018C224.827 73.6001 222.121 76.5091 223.134 77.2269C219.946 75.54 218.41 74.3474 215.418 72.7842L215.652 72.1718C221.186 66.1703 234.124 52.3434 241.606 45.0481C249.837 39.4363 256.571 40.6834 258.909 42.0084L254.934 62.585C248.578 65.6618 231.262 72.4359 228.045 73.018Z" fill="#64E2D3" stroke="white" stroke-width="0.46765"/>
<path d="M154.029 181.013C155.017 182.155 157.156 184.765 158.308 185.581C159.311 186.291 160.188 187 159.966 188.355C159.933 188.557 159.875 188.774 159.79 189.007C157.486 189.986 150.738 190.313 144.978 188.355C141.851 186.56 136.255 179.218 135.761 176.934L135.761 176.934C135.489 175.673 135.216 174.412 134.445 173.15C133.819 172.127 132.866 171.104 131.318 170.082C127.862 167.797 122.595 163.229 123.089 159.966C123.583 156.703 124.735 152.787 131.318 150.503H132.141L171.225 91.3455C171.433 95.9929 175.756 98.7145 188.528 103.738C181.901 106.925 152.594 142.08 151.067 146.762C149.79 150.678 148.105 161.403 148.105 163.229C148.105 162.315 150.08 161.326 151.067 160.945C151.089 162.051 151.134 163.395 151.209 164.861C151.252 165.698 151.304 166.576 151.367 167.471C151.443 168.546 151.534 169.646 151.642 170.734C151.764 171.964 151.908 173.179 152.076 174.324C152.259 175.572 152.471 176.738 152.715 177.75C153.079 179.256 153.513 180.421 154.029 181.013Z" fill="#64E2D3"/>
<path d="M132.141 150.503C131.153 151.645 129.606 155.137 131.318 159.966C134.939 163.229 137.078 165.187 139.218 165.676C141.357 166.166 144.978 166.492 145.965 165.676M132.141 150.503H131.318C124.735 152.787 123.583 156.703 123.089 159.966M132.141 150.503L171.225 91.3455C171.433 95.9929 175.756 98.7145 188.528 103.738C181.901 106.925 152.594 142.08 151.067 146.762C149.79 150.678 148.105 161.403 148.105 163.229M145.965 165.676C145.965 167.308 146.294 172.039 146.953 173.671C147.611 175.302 148.598 179.708 150.409 180.197M145.965 165.676L148.105 163.229M150.409 180.197C152.219 180.687 153.536 181.013 154.029 181.013M150.409 180.197C149.979 180.082 149.62 177.827 149.331 175.955M154.029 181.013C155.017 182.155 157.156 184.765 158.308 185.581C159.311 186.291 160.188 187 159.966 188.355M154.029 181.013C153.513 180.421 153.079 179.256 152.715 177.75M123.089 159.966C122.595 163.229 127.862 167.797 131.318 170.082C132.866 171.104 133.819 172.127 134.445 173.15M123.089 159.966C124.625 158.661 127.763 155.92 128.026 155.398C128.026 157.519 128.191 158.987 131.318 162.577C133.622 164.208 139.218 169.429 139.218 169.429C139.218 169.429 144.575 181.992 146.953 183.46C149.331 184.929 152.219 188.268 158.308 188.311M148.105 163.229C148.105 162.315 150.08 161.326 151.067 160.945C151.089 162.051 151.134 163.395 151.209 164.861M148.105 163.229C148.105 163.405 148.117 163.749 148.138 164.208M148.138 164.208C148.934 164.426 150.664 164.861 151.209 164.861M148.138 164.208C148.169 164.883 148.22 165.808 148.284 166.818M151.209 164.861C151.252 165.698 151.304 166.576 151.367 167.471M148.284 166.818C149.326 167.254 151.403 167.993 151.367 167.471M148.284 166.818C148.337 167.661 148.399 168.563 148.465 169.429M151.367 167.471C151.443 168.546 151.534 169.646 151.642 170.734M148.465 169.429C149.545 170.082 151.692 171.256 151.642 170.734M148.465 169.429C148.561 170.689 148.666 171.874 148.766 172.692M151.642 170.734C151.764 171.964 151.908 173.179 152.076 174.324M148.766 172.692C148.822 173.151 148.877 173.495 148.928 173.671C149.042 174.068 149.177 174.957 149.331 175.955M148.766 172.692C149.9 173.453 152.149 174.846 152.076 174.324M152.076 174.324C152.259 175.572 152.471 176.738 152.715 177.75M149.331 175.955C150.35 176.825 152.454 178.402 152.715 177.75M159.966 188.355C159.933 188.557 159.875 188.774 159.79 189.007C157.486 189.986 150.738 190.313 144.978 188.355C141.851 186.56 136.255 179.218 135.761 176.934C135.489 175.673 135.216 174.412 134.445 173.15M159.966 188.355C159.457 188.349 158.9 188.336 158.308 188.311M134.445 173.15C135.268 174.263 135.761 173.671 136.749 175.955C137.737 178.239 141.028 181.992 142.674 183.46C144.573 186.989 152.904 188.089 158.308 188.311" stroke="white" stroke-width="0.46765"/>
<path d="M196.243 61.8836C207.701 46.7629 232.252 15.9604 238.799 13.7156C246.983 10.9097 277.38 11.3774 282.057 13.7156C285.534 15.454 290.561 22.3619 290.414 32.4216C290.363 35.893 289.696 39.7398 288.136 43.879C285.097 54.1673 275.276 84.5645 275.744 88.3057C276.913 103.037 289.68 185.577 296.788 193.995H291.878C289.259 189.505 260.779 105.998 254.933 88.3057L261.246 43.879C258.285 41.151 249.976 37.7995 240.436 46.2172C230.896 54.6349 219.626 67.3394 215.183 72.6394L196.243 61.8836Z" fill="#64E2D3"/>
<path d="M261.246 43.879L254.933 88.3057C260.779 105.998 289.259 189.505 291.878 193.995H296.788C289.68 185.577 276.913 103.037 275.744 88.3057C275.276 84.5645 285.097 54.1673 288.136 43.879C289.696 39.7398 290.363 35.893 290.414 32.4216M261.246 43.879C258.285 41.151 249.976 37.7995 240.436 46.2172C230.896 54.6349 219.626 67.3394 215.183 72.6394L196.243 61.8836C207.701 46.7629 232.252 15.9604 238.799 13.7156C246.983 10.9097 277.38 11.3774 282.057 13.7156C285.534 15.454 290.561 22.3619 290.414 32.4216M261.246 43.879C266.272 38.2672 279.142 28.1192 290.414 32.4216" stroke="white" stroke-width="0.46765"/>
<path d="M275.744 88.3058C275.276 84.5646 285.097 54.1673 288.137 43.879C289.696 39.7398 290.363 35.8931 290.414 32.4216C279.142 28.1192 266.273 38.2672 261.247 43.879L254.934 88.3058C260.779 105.999 289.259 189.505 291.878 193.995H296.788C289.68 185.577 276.913 103.037 275.744 88.3058Z" fill="#E7E3E9" stroke="white" stroke-width="0.46765"/>
<path d="M294.685 33.1229C295.059 24.144 290.476 15.664 287.67 13.7154C288.839 13.7154 291.879 14.0895 294.685 15.586C294.685 9.69975 302.849 2.18064 313.157 1.12509C314.972 0.939223 316.854 0.953769 318.769 1.21293C320.235 1.41133 321.721 1.75307 323.211 2.258C337.708 7.16832 338.878 29.3817 326.485 39.2023C325.409 40.0552 324.315 40.7458 323.211 41.2932C321.741 42.0226 320.254 42.4977 318.769 42.7633C308.536 44.5933 298.414 36.4791 294.685 33.1229Z" fill="#E7E3E9"/>
<path d="M313.157 1.12509C316.361 0.796938 319.773 1.09348 323.211 2.258C337.708 7.16832 338.878 29.3817 326.485 39.2023C323.974 41.1917 321.368 42.2984 318.769 42.7633M313.157 1.12509C302.849 2.18064 294.685 9.69975 294.685 15.586C291.879 14.0895 288.839 13.7154 287.67 13.7154C290.476 15.664 295.059 24.144 294.685 33.1229C298.414 36.4791 308.536 44.5933 318.769 42.7633M313.157 1.12509C318.379 7.92963 326.812 25.7836 318.769 42.7633M318.769 1.21286C323.991 8.0174 331.255 24.3136 323.211 41.2933" stroke="white" stroke-width="0.46765"/>
<path d="M318.768 42.7633C326.812 25.7837 318.378 7.92969 313.156 1.12514C314.848 0.913598 318.339 0.634987 318.768 1.21291C323.99 8.01745 331.254 24.3137 323.211 41.2933C322.925 41.9149 320.13 42.5323 318.768 42.7633Z" fill="#64E2D3" stroke="white" stroke-width="0.46765"/>
</svg>
