<svg width="41" height="24" viewBox="0 0 41 24" fill="none" xmlns="http://www.w3.org/2000/svg">
<path d="M3.10078 3.65105L1.30859 0.878754H3.71685H8.98141L17.2143 15.6643L15.5341 18.9967L18.2644 22.6371H19.9866C20.0986 22.4579 19.3985 21.965 19.3985 21.601H21.3307L21.8068 22.6371H24.271C24.0918 22.4803 23.7577 21.7876 23.711 21.601H24.5231L25.3352 23.1411H18.6424H16.57H5.00499L6.32113 21.601H9.42946L12.6498 18.3806L4.52894 3.65105H3.10078Z" fill="#8F9092"/>
<path d="M15.5341 18.9967L17.2143 15.6643L8.98141 0.878754H3.71685M15.5341 18.9967L18.6424 23.1411M15.5341 18.9967L16.8783 20.8169L18.2224 22.6371C18.6984 22.6371 19.5833 22.6371 19.9866 22.6371C20.0986 22.4579 19.3985 21.965 19.3985 21.601H21.3307L21.8068 22.6371C21.9748 22.6371 23.3077 22.6371 24.271 22.6371C24.0918 22.4803 23.7577 21.7876 23.711 21.601H24.5231L25.3352 23.1411H18.6424M3.71685 0.878754H1.30859L3.10078 3.65105H4.52894L12.6498 18.3806L9.42946 21.601H6.32113L5.00499 23.1411H16.57M3.71685 0.878754L10.1434 12.0099L13.3567 17.5755L16.57 23.1411M16.57 23.1411H18.6424" stroke="white" stroke-width="0.056006"/>
<path d="M17.2416 15.6817L15.5614 19.014L18.6697 23.1585H16.5973L13.384 17.5929L10.1707 12.0273L3.74414 0.896088H9.0087L17.2416 15.6817Z" fill="#64E2D3"/>
<path d="M18.2497 22.6544L16.9055 20.8342L15.5614 19.014M15.5614 19.014L17.2416 15.6817L9.0087 0.896088H3.74414L10.1707 12.0273L13.384 17.5929L16.5973 23.1585H18.6697L15.5614 19.014Z" stroke="white" stroke-width="0.056006"/>
<path d="M1.30803 0.896076L1 0.448029H9.4849L17.8018 15.4296L17.5218 16.0457L9.00885 0.896076H1.30803Z" fill="#8F9092" stroke="#FCFCFC" stroke-width="0.056006"/>
<path d="M19.3275 21.5584C19.4457 21.6952 19.702 22.0078 19.8399 22.1055C19.96 22.1905 20.0651 22.2755 20.0385 22.4377C20.0345 22.4619 20.0276 22.4879 20.0173 22.5158C19.7414 22.6331 18.9333 22.6721 18.2434 22.4377C17.869 22.2227 17.1988 21.3435 17.1397 21.0699L17.1397 21.0699C17.107 20.9188 17.0744 20.7678 16.982 20.6168C16.9071 20.4943 16.7929 20.3718 16.6075 20.2493C16.1936 19.9757 15.5629 19.4286 15.622 19.0378C15.6812 18.647 15.8191 18.1781 16.6075 17.9045H16.7061L29.3676 1.00809H33.7081C32.9145 1.38969 19.1556 16.8957 18.9727 17.4565C18.8198 17.9254 18.6179 19.2099 18.6179 19.4286C18.6179 19.3192 18.8545 19.2006 18.9727 19.1551C18.9753 19.2875 18.9807 19.4485 18.9897 19.624C18.9948 19.7243 19.0011 19.8294 19.0086 19.9366C19.0177 20.0653 19.0286 20.1971 19.0415 20.3274C19.0561 20.4747 19.0734 20.6202 19.0935 20.7573C19.1154 20.9068 19.1408 21.0464 19.1701 21.1676C19.2136 21.348 19.2657 21.4876 19.3275 21.5584Z" fill="#64E2D3"/>
<path d="M16.7061 17.9045C16.5878 18.0413 16.4026 18.4595 16.6075 19.0378C17.0411 19.4286 17.2974 19.6631 17.5536 19.7217C17.8098 19.7803 18.2434 19.8194 18.3617 19.7217M16.7061 17.9045H16.6075C15.8191 18.1781 15.6812 18.647 15.622 19.0378M16.7061 17.9045L29.3676 1.00809C30.1797 1.00809 32.1119 1.00809 33.7081 1.00809C32.9145 1.38969 19.1556 16.8957 18.9727 17.4565C18.8198 17.9254 18.6179 19.2099 18.6179 19.4286M18.3617 19.7217C18.3617 19.9171 18.4011 20.4837 18.48 20.6791C18.5588 20.8745 18.6771 21.4021 18.8939 21.4607M18.3617 19.7217L18.6179 19.4286M18.8939 21.4607C19.1107 21.5193 19.2684 21.5584 19.3275 21.5584M18.8939 21.4607C18.8424 21.4469 18.7994 21.1768 18.7648 20.9527M19.3275 21.5584C19.4457 21.6952 19.702 22.0078 19.8399 22.1055C19.96 22.1905 20.0651 22.2755 20.0385 22.4377M19.3275 21.5584C19.2657 21.4876 19.2136 21.348 19.1701 21.1676M15.622 19.0378C15.5629 19.4286 16.1936 19.9757 16.6075 20.2493C16.7929 20.3718 16.9071 20.4943 16.982 20.6168M15.622 19.0378C15.806 18.8815 16.1818 18.5532 16.2133 18.4907C16.2133 18.7447 16.233 18.9206 16.6075 19.3504C16.8835 19.5458 17.5536 20.1711 17.5536 20.1711C17.5536 20.1711 18.1952 21.6756 18.48 21.8515C18.7648 22.0273 19.1107 22.4272 19.8399 22.4324M18.6179 19.4286C18.6179 19.3192 18.8545 19.2006 18.9727 19.1551C18.9753 19.2875 18.9807 19.4485 18.9897 19.624M18.6179 19.4286C18.6179 19.4497 18.6194 19.4909 18.6219 19.5458M18.6219 19.5458C18.7173 19.5719 18.9244 19.624 18.9897 19.624M18.6219 19.5458C18.6256 19.6267 18.6317 19.7374 18.6394 19.8585M18.9897 19.624C18.9948 19.7243 19.0011 19.8294 19.0086 19.9366M18.6394 19.8585C18.7642 19.9106 19.0129 19.9992 19.0086 19.9366M18.6394 19.8585C18.6457 19.9593 18.6531 20.0673 18.661 20.1711M19.0086 19.9366C19.0177 20.0653 19.0286 20.1971 19.0415 20.3274M18.661 20.1711C18.7904 20.2493 19.0475 20.3899 19.0415 20.3274M18.661 20.1711C18.6725 20.322 18.6851 20.4639 18.6971 20.5619M19.0415 20.3274C19.0561 20.4747 19.0734 20.6202 19.0935 20.7573M18.6971 20.5619C18.7039 20.6169 18.7104 20.658 18.7165 20.6791C18.7302 20.7267 18.7463 20.8332 18.7648 20.9527M18.6971 20.5619C18.8329 20.6531 19.1023 20.8198 19.0935 20.7573M19.0935 20.7573C19.1154 20.9068 19.1408 21.0464 19.1701 21.1676M18.7648 20.9527C18.8868 21.0569 19.1387 21.2458 19.1701 21.1676M20.0385 22.4377C20.0345 22.4619 20.0276 22.4879 20.0173 22.5158C19.7414 22.6331 18.9333 22.6721 18.2434 22.4377C17.869 22.2227 17.1988 21.3435 17.1397 21.0699C17.107 20.9189 17.0744 20.7678 16.982 20.6168M20.0385 22.4377C19.9775 22.437 19.9108 22.4354 19.8399 22.4324M16.982 20.6168C17.0806 20.7501 17.1397 20.6791 17.258 20.9527C17.3762 21.2262 17.7704 21.6756 17.9675 21.8515C18.1949 22.2742 19.1927 22.4058 19.8399 22.4324" stroke="white" stroke-width="0.056006"/>
</svg>
